<svg width="58" height="58" viewBox="0 0 58 58" fill="none" xmlns="http://www.w3.org/2000/svg">
<g filter="url(#filter0_d_136320_144)">
<path d="M29 2.72191e-06C42.8071 2.11838e-06 54 11.1929 54 25C54 38.8071 42.8071 50 29 50C15.1929 50 4 38.8071 4 25C4 11.1929 15.1929 3.32544e-06 29 2.72191e-06Z" fill="#ECECEC"/>
<path d="M29 2.72191e-06C42.8071 2.11838e-06 54 11.1929 54 25C54 38.8071 42.8071 50 29 50C15.1929 50 4 38.8071 4 25C4 11.1929 15.1929 3.32544e-06 29 2.72191e-06Z" stroke="black"/>
<path d="M27.3333 16.6667L35.6667 25L27.3333 33.3333" stroke="black"/>
</g>
<defs>
<filter id="filter0_d_136320_144" x="0" y="0" width="58" height="58" filterUnits="userSpaceOnUse" color-interpolation-filters="sRGB">
<feFlood flood-opacity="0" result="BackgroundImageFix"/>
<feColorMatrix in="SourceAlpha" type="matrix" values="0 0 0 0 0 0 0 0 0 0 0 0 0 0 0 0 0 0 127 0" result="hardAlpha"/>
<feOffset dy="4"/>
<feGaussianBlur stdDeviation="2"/>
<feComposite in2="hardAlpha" operator="out"/>
<feColorMatrix type="matrix" values="0 0 0 0 0 0 0 0 0 0 0 0 0 0 0 0 0 0 0.25 0"/>
<feBlend mode="normal" in2="BackgroundImageFix" result="effect1_dropShadow_136320_144"/>
<feBlend mode="normal" in="SourceGraphic" in2="effect1_dropShadow_136320_144" result="shape"/>
</filter>
</defs>
</svg>
